<svg xmlns="http://www.w3.org/2000/svg" width="26" height="24" fill="none"><path fill="#000" fill-rule="evenodd" d="M4 2.667A1.333 1.333 0 0 0 2.667 4v16A1.333 1.333 0 0 0 4 21.333h16A1.333 1.333 0 0 0 21.333 20v-8A1.333 1.333 0 1 1 24 12v8a4 4 0 0 1-4 4H4a4 4 0 0 1-4-4V4a4 4 0 0 1 4-4h13.333a1.333 1.333 0 1 1 0 2.667H4Z" clip-rule="evenodd"/><path fill="#E30613" d="M23.49 1.425c-.163.07-.31.172-.433.299L12 12.781 8.943 9.724a1.333 1.333 0 1 0-1.886 1.885l4 4a1.334 1.334 0 0 0 1.886 0l12-12a1.334 1.334 0 0 0-1.453-2.184Z"/></svg>