<svg xmlns="http://www.w3.org/2000/svg" width="112" height="54" fill="none"><path fill="#E30613" d="M29.254 24.398c.934.075 2.487.075 4.116-.513 2.186-.8 3.241-2.202 4.417-3.74 0 0 2.639-3.484 2.985-10.24a2.51 2.51 0 0 0-.196-1.207c-.392-.965-1.281-1.508-1.703-1.75-1.282-.769-2.639-.86-3.272-.874-2.488-.03-9.257-.166-18.348.03a7.59 7.59 0 0 0-2.744.649c-1.584.708-2.398 1.764-2.714 2.232C9.202 16.842 6.593 24.699 4 32.557h9.755c2.005-6.229 3.995-12.473 6-18.701.076-.166.257-.453.588-.709.241-.166.468-.256.573-.302a2.34 2.34 0 0 1 .558-.12h7.75c.165.03.392.105.588.241 1.055.77.15 2.805.03 3.046-.211.483-.558 1.252-1.418 1.69-.497.256-1.085.361-1.175.377-.483.09-.875.075-1.01.075 0 0-1.252-.03-3.137.196-1.824.226-3.995 1.553-4.402 3.303-.181.784.045 1.493.256 1.945.076.136.257.408.573.604.377.256.769.286.92.286 2.955-.015 5.88-.06 8.805-.09Z"/><path fill="#000" d="M63.177 18.817c-.06-1.402-.106-2.88-1.433-3.875-1.055-.785-2.367-.875-3-.875h-10.84c-1.116.075-2.895.347-4.463 1.418-1.659 1.116-2.201 2.7-3.302 5.866-.497 1.433-.739 3.228-1.221 6.832-.106.77-.226 1.78.422 2.745.181.271.995 1.357 2.397 1.583.151.03.287.03.377.03 5.76 0 11.534 0 17.293.016l1.086-4.796h-8.85c-.272.015-.664 0-1.146-.06-.814-.106-2.201-.287-2.834-1.177-.136-.18-.408-.648-.272-1.418 5.88.015 10.252 0 11.896 0 .18 0 .633 0 1.13-.196.468-.18 1.131-.603 1.855-2.277.482-1.086.98-2.202.905-3.816Zm-7.87 1.463c-.317.377-.8.453-.92.468-2.096.015-4.192.015-6.272.03.075-.332.316-1.04 1.07-1.629.603-.467 1.221-.754 1.78-.754h3.437c.105.03.648.151.95.588.256.377.286.89-.045 1.297ZM73.413 8.472c-.286 1.312-.557 2.624-.844 3.936h7.132c.316-1.312.618-2.624.935-3.936h-7.222ZM85.52 14.112c-.874 5.55-1.764 11.085-2.638 16.635-.09.286-.256.694-.618 1.056-.694.693-1.674.754-2.096.754H68.679c-1.13 0-1.87-.181-2.442-.468a3.705 3.705 0 0 1-.92-.633c-1.175-1.086-1.25-2.715-1.266-3.198.678-4.735 1.372-9.456 2.05-14.191l6.8.045c-.618 3.921-1.221 7.857-1.84 11.779.016.12.046.286.136.452.407.679 1.599.754 2.292.8.664.045 2.382.15 3.046-.71.045-.06.075-.12.105-.165 0 0 .076-.136.106-.302.045-.196.844-5.128 1.93-11.839 2.306-.015 4.583-.015 6.845-.015ZM100.522 14.067c-.377 2.413-.739 4.826-1.116 7.239h-4.463l1.041-7.24h-7.478l-2.85 18.475h7.66l1.04-7.238h4.432c-.377 2.412-.739 4.825-1.115 7.238h7.659c.889-6.153 1.763-12.32 2.653-18.474h-7.463Z"/><path fill="#E30613" d="M108 34.321H4.015v13.68H108V34.32Z"/><path fill="#fff" d="M17.75 37.172c-.377-.332-.89-.317-.965-.317h-7.72c-.18.754-.376 1.493-.557 2.247 1.945 0 3.875-.015 5.82-.015.075 0 .301-.015.497.105.257.181.332.559.12.74a.542.542 0 0 1-.27.12c-1.704 0-3.408-.015-5.112-.015-.165.015-.603.045-1.01.317a1.676 1.676 0 0 0-.497.497c-.422 1.675-.694 2.956-.77 3.544a.842.842 0 0 0 .121.589c.211.301.618.422.83.467h7.13c.106-.015.544-.06.83-.362.12-.12.181-.256.211-.347.558-2.186 1.1-4.373 1.659-6.56 0-.015.166-.588-.317-1.01Zm-3.438 5.52a.723.723 0 0 1-.256.391c-.241.197-.542.212-.618.227h-2.654c.046-.242.091-.498.121-.74.045-.12.136-.3.332-.482.392-.347.92-.377 1.04-.377h2.277c-.09.317-.166.649-.242.98ZM27.022 41.002c.166-.03.453-.12.724-.271 1.342-.784 1.628-2.926.618-3.62-.166-.12-.392-.21-.708-.24H20.66a.98.98 0 0 0-.392.075c-.362.15-.498.497-.558.633-.015.045-.03.09-.045.12-.603 2.157-1.206 4.299-1.794 6.455-.015.046-.03.121-.045.212-.046.286-.151.904.18 1.07.046.015.106.046.196.046.438 0 3.498.015 7.674 0 .453.045.784-.046 1.026-.136 1.342-.528 1.84-2.549.92-3.71a2.567 2.567 0 0 0-.8-.634Zm-2.91 2.202a1.41 1.41 0 0 1-.301.106h-3.015c0-.211.03-.995.693-1.448.09-.06.181-.12.317-.166h3.015c0 .136.045 1.116-.709 1.508Zm.634-3.122a1.13 1.13 0 0 1-.272.106h-2.698c0-.196.03-.89.618-1.297.075-.045.166-.106.286-.15h2.699c0 .12.03.995-.633 1.341ZM29.751 36.855h9.951c-.181.875-.377 1.765-.558 2.64h-3.483c-.331 1.99-.648 3.98-.98 5.972h-3.437l1.13-5.973h-3.03c.12-.874.272-1.75.407-2.639ZM48.22 37.624c-.859-.694-2.065-.724-3.347-.754-1.206-.03-2.608-.045-3.784.709-1.538.995-1.689 2.7-1.794 4.102-.106 1.297-.196 2.292.603 3.031.83.77 2.14.754 3.995.754 1.81-.015 3.016-.015 3.935-.754.83-.663.935-1.523 1.116-3.031.181-1.75.362-3.167-.724-4.057Zm-2.472 3.997c-.09.95-.136 1.327-.407 1.538a.558.558 0 0 1-.257.12c-.754.016-1.507.016-2.261.03a.608.608 0 0 1-.211-.195c-.211-.287-.196-.664-.106-1.478.166-1.614.317-1.885.528-2.036.09-.06.18-.09.256-.106h2.156a.44.44 0 0 1 .211.12c.211.197.226.559.09 2.007ZM50.95 36.87l-1.674 7.48a.849.849 0 0 0 .316.815c.196.15.422.211.528.226 3.83.03 7.66.045 11.489.076.135-.03.392-.106.618-.287.407-.317.467-.709.482-.83l1.493-7.495h-3.453c-.437 2.036-.874 4.057-1.296 6.093h-1.418c.438-2.021.875-4.057 1.312-6.078H55.91c-.452 2.021-.904 4.057-1.356 6.078H53.06c.437-2.036.874-4.057 1.297-6.093-1.146 0-2.277.015-3.408.015ZM64.79 36.855c-.558 2.865-1.116 5.746-1.659 8.612h3.347c.513-2.866 1.04-5.747 1.553-8.612H64.79Z"/><path fill="#fff" d="M74.288 36.855c-1.251 1.327-2.487 2.67-3.74 3.997-.09.075-.195.196-.195.331-.015.151.09.272.12.317.212.256 1.358 1.81 2.926 3.967h-3.544c-1.341-2.157-2.322-3.726-2.487-3.967-.03-.045-.106-.15-.106-.317 0-.166.106-.286.136-.331.181-.227 1.508-1.81 3.347-3.997h3.543Z"/><path fill="#fff" d="M81.902 37.624c-.86-.694-2.066-.724-3.347-.754-1.206-.03-2.609-.045-3.785.709-1.537.995-1.688 2.7-1.793 4.102-.106 1.297-.197 2.292.603 3.031.829.77 2.14.754 3.995.754 1.809-.015 3.015-.015 3.935-.754.83-.663.935-1.523 1.116-3.031.18-1.75.362-3.167-.724-4.057Zm-2.472 3.997c-.09.95-.137 1.327-.408 1.538a.557.557 0 0 1-.256.12c-.754.016-1.508.016-2.261.03a.606.606 0 0 1-.212-.195c-.21-.287-.196-.664-.105-1.478.166-1.614.317-1.885.528-2.036.09-.06.18-.09.256-.106h2.156c.06.015.135.045.211.12.211.182.226.544.09 2.007ZM82.158 45.467c1.628-2.64 3.272-5.294 4.9-7.933.045-.06.09-.136.166-.196.422-.408 1.055-.468 1.312-.483h.648c.211.015 1.055.12 1.463.679.045.075.105.15.135.256.86 2.564 1.719 5.113 2.579 7.677-1.162 0-2.322-.016-3.468-.016a597.46 597.46 0 0 0-1.282-5.595c-1.146 1.87-2.276 3.74-3.422 5.625-1.025-.014-2.02-.014-3.03-.014ZM104.397 37.172c-.377-.332-.89-.317-.965-.317h-7.72c-.18.754-.377 1.493-.558 2.247 1.946 0 3.876-.015 5.82-.015.076 0 .302-.015.498.105.256.181.332.559.121.74a.547.547 0 0 1-.272.12c-1.704 0-3.407-.015-5.111-.015-.166.015-.603.045-1.01.317a1.682 1.682 0 0 0-.498.497c-.422 1.675-.693 2.956-.769 3.544a.84.84 0 0 0 .121.589c.211.301.618.422.83.467h7.131c.105-.015.543-.06.829-.362a.893.893 0 0 0 .211-.347c.558-2.186 1.101-4.373 1.658-6.56 0-.015.166-.588-.316-1.01Zm-3.453 5.52a.722.722 0 0 1-.256.391c-.241.197-.543.212-.618.227h-2.654c.046-.242.09-.498.12-.74.046-.12.137-.3.332-.482.392-.347.92-.377 1.04-.377h2.277c-.075.317-.151.649-.241.98Z"/></svg>