<svg xmlns="http://www.w3.org/2000/svg" width="50" height="29" fill="none"><path fill="#E30613" d="M11.844.5H1.495C.669.5 0 1.19 0 2.04v20.522c0 .85.67 1.54 1.495 1.54h5.982a5.078 5.078 0 0 1-.006-.22c0-2.55 2.008-4.617 4.485-4.617 2.477 0 4.485 2.067 4.485 4.618 0 .073-.002.146-.005.218h18.213a4.98 4.98 0 0 1-.005-.218c0-2.55 2.008-4.618 4.485-4.618 2.477 0 4.485 2.067 4.485 4.618 0 .073-.002.146-.006.218h4.897c.825 0 1.495-.689 1.495-1.54V5.9C49.998 2.917 47.65.5 44.753.5H14.562"/><path fill="#E30613" d="M11.844.5H1.495C.669.5 0 1.19 0 2.04v20.522c0 .85.67 1.54 1.495 1.54h5.982a5.078 5.078 0 0 1-.006-.22c0-2.55 2.008-4.617 4.485-4.617 2.477 0 4.485 2.067 4.485 4.618 0 .073-.002.146-.005.218h18.213a4.98 4.98 0 0 1-.005-.218c0-2.55 2.008-4.618 4.485-4.618 2.477 0 4.485 2.067 4.485 4.618 0 .073-.002.146-.006.218h4.897c.825 0 1.495-.689 1.495-1.54V5.9C49.998 2.917 47.65.5 44.753.5H14.562"/><path fill="#97D3EE" d="M19.393 4.348h12.375v19.753H19.393V4.348Z"/><path fill="#6CC6E4" d="M19.393 4.348h6.188v19.753h-6.188V4.348Z"/><path fill="#444" d="M39.13 28.5c2.476 0 4.484-2.067 4.484-4.617s-2.008-4.618-4.485-4.618c-2.477 0-4.484 2.067-4.484 4.618 0 2.55 2.007 4.617 4.484 4.617ZM11.956 28.5c2.477 0 4.485-2.067 4.485-4.617s-2.008-4.618-4.485-4.618c-2.476 0-4.484 2.067-4.484 4.618 0 2.55 2.008 4.617 4.484 4.617Z"/><path fill="#F5F7FA" d="M39.13 25.468c.85 0 1.54-.71 1.54-1.585 0-.876-.69-1.586-1.54-1.586-.852 0-1.541.71-1.541 1.585 0 .876.69 1.586 1.54 1.586ZM11.957 25.468c.85 0 1.54-.71 1.54-1.586 0-.876-.69-1.585-1.54-1.585-.851 0-1.54.71-1.54 1.585 0 .876.689 1.586 1.54 1.586Z"/><path fill="#A52727" d="M19.393 15.101h12.375v9H19.393v-9Z"/><path fill="#A52727" d="M19.393 15.101h6.188v9h-6.188v-9Z"/><path fill="#97D3EE" d="M44.127 15.101H50V5.515H39.129V15.1h2.28"/><path fill="#6CC6E4" d="M31.769 5.515h7.36V15.1h-7.36V5.515Z"/><path fill="#97D3EE" d="M11.957 5.515h7.36V15.1h-7.36V5.515Z"/><path fill="#A52727" d="M0 20.895v-3.118h1.58c.836 0 1.514.698 1.514 1.56 0 .86-.678 1.558-1.514 1.558H0ZM32.584 24.1v-9a.852.852 0 0 0-.239-.593.803.803 0 0 0-.576-.246H19.394a.803.803 0 0 0-.577.246.852.852 0 0 0-.239.594v9h1.63V15.94h10.746v8.16h1.63Z"/><path fill="#A52727" d="M25.581 15.94a.803.803 0 0 1-.576-.246.852.852 0 0 1-.239-.593V4.348c0-.223.086-.436.239-.594a.804.804 0 0 1 .576-.246c.217 0 .424.089.577.246.153.158.239.371.239.594V15.1a.852.852 0 0 1-.24.593.804.804 0 0 1-.576.246ZM50 20.895v-3.118h-2.327c-.836 0-1.514.698-1.514 1.56 0 .86.678 1.558 1.514 1.558H50Z"/><path fill="#A52727" d="M32.584 24.1V4.349a.852.852 0 0 0-.239-.594.804.804 0 0 0-.576-.246H19.394a.804.804 0 0 0-.577.246.852.852 0 0 0-.239.594V24.1h1.63V5.187h10.746v18.914h1.63Z"/><path fill="#6CC6E4" d="M5.9 5.515c-.72 0-1.304.601-1.304 1.343v6.9c0 .742.584 1.343 1.304 1.343h6.056V5.515H5.9Z"/></svg>