<svg xmlns="http://www.w3.org/2000/svg" width="40" height="27" fill="none"><path fill="#A52727" d="M40 15.125v2.6h-2.742c-1.152 0-1.717-1.406-.913-2.22.234-.234.557-.38.913-.38H40Z"/><path fill="#6CC6E4" d="m39.298 6.762-2.57-3.256H8.143a2.685 2.685 0 0 0-2.621 2.138l-.473 2.237c-.355 1.68.917 3.262 2.622 3.262H40V8.785c0-.735-.247-1.448-.702-2.023Z"/><path fill="#97D3EE" d="m12.129 3.506-3.21 7.637c-1.266 0-2.075.123-2.963-.624l2.948-7.013h3.225Zm18.046 0-3.21 7.637H23.74l3.21-7.637h3.225ZM40 8.785v2.358h-5.105l2.732-6.499 1.671 2.118c.455.575.702 1.288.702 2.023ZM20.192 3.506l-3.21 7.637h-1.613l3.21-7.637h1.613Zm16.494 0-3.21 7.637h-1.21l3.21-7.637h1.21Z"/><path fill="#464646" d="M29.357 17.4c2.494 0 4.515 2.037 4.515 4.55s-2.022 4.55-4.516 4.55-4.515-2.037-4.515-4.55 2.022-4.55 4.516-4.55Zm.645 4.55c0-.359-.29-.65-.646-.65a.647.647 0 0 0-.645.65c0 .36.289.65.645.65.357 0 .645-.29.645-.65ZM9.843 17.4c2.494 0 4.515 2.037 4.515 4.55s-2.021 4.55-4.515 4.55c-2.494 0-4.516-2.037-4.516-4.55S7.35 17.4 9.844 17.4Zm.645 4.55c0-.359-.29-.65-.645-.65a.647.647 0 0 0-.646.65c0 .36.29.65.646.65.356 0 .645-.29.645-.65Z"/><path fill="#DC0000" d="M37.258 15.125H40v-3.981h-7.902V3.506h4.63l-1.404-1.78A3.204 3.204 0 0 0 32.8.5H3.232C1.45.501.007 1.956.007 3.751V18.7c0 1.795 1.444 3.25 3.225 3.25h2.096c0-2.512 2.021-4.55 4.516-4.55 2.494 0 4.515 2.038 4.515 4.55h10.482c0-2.512 2.02-4.55 4.516-4.55 2.494 0 4.515 2.038 4.515 4.55h2.903c1.78 0 3.225-1.455 3.225-3.25v-.975h-2.742c-.712 0-1.29-.582-1.29-1.3 0-.72.578-1.3 1.29-1.3ZM13.07 11.144H7.671c-1.705 0-2.976-1.582-2.622-3.262l.473-2.237a2.685 2.685 0 0 1 2.621-2.139h4.926v7.638Zm8.063 0H14.36V3.506h6.773v7.638Zm1.29 0V3.506h8.386v7.638h-8.386Z"/><path fill="#DC0000" d="M39.984 19.025c-.162 1.642-1.537 2.925-3.21 2.925h-2.902a4.553 4.553 0 0 0-1.057-2.925h7.169Zm-33.352-.273a4.553 4.553 0 0 0-1.304 3.198H3.232C1.45 21.95.007 20.495.007 18.7v-4.848l.406.6a10.373 10.373 0 0 0 6.219 4.3Zm6.67.273h12.596a4.552 4.552 0 0 0-1.057 2.925H14.36a4.553 4.553 0 0 0-1.057-2.925ZM36.728 3.506H8.143a2.685 2.685 0 0 0-2.621 2.139C5.013 8.05 5 8.045 4.99 8.37a10.53 10.53 0 0 1-4.983-3.01c0-1.622-.079-2.177.308-2.999A3.222 3.222 0 0 1 3.232.5H32.8c.983 0 1.912.452 2.524 1.227l1.404 1.78Z"/><path fill="#F5F7FA" d="M9.844 23.25c-.712 0-1.29-.583-1.29-1.3 0-.717.578-1.3 1.29-1.3.71 0 1.29.583 1.29 1.3 0 .717-.58 1.3-1.29 1.3Zm19.512 0c-.71 0-1.29-.583-1.29-1.3 0-.717.58-1.3 1.29-1.3.712 0 1.29.583 1.29 1.3 0 .717-.578 1.3-1.29 1.3Z"/><path fill="#A52727" d="M27.582 15.206h-1.29a.642.642 0 0 1-.456-.19.652.652 0 0 1 .456-1.11h1.29c.172 0 .336.069.457.19a.652.652 0 0 1-.457 1.11Z"/><path fill="#DC0000" d="M3.958 14.556c0 .36-.29.65-.645.65H.007v-1.3h3.306c.355 0 .645.29.645.65Z"/><path fill="#A52727" d="M3.152 16.994c0 .359-.29.65-.645.65h-2.5v-1.3h2.5c.355 0 .645.29.645.65Z"/></svg>