<svg xmlns="http://www.w3.org/2000/svg" width="44" height="41" fill="none"><path fill="#444" d="M19.25 12.207a.869.869 0 0 1-.397-.096.928.928 0 0 1-.319-.27l-7.332-9.756a1.018 1.018 0 0 1 .142-1.371.88.88 0 0 1 1.289.152l7.333 9.756c.317.42.252 1.034-.144 1.371a.874.874 0 0 1-.572.214Zm4.584 0a.871.871 0 0 1-.398-.096.929.929 0 0 1-.319-.27l-7.333-9.756a1.017 1.017 0 0 1 .144-1.371.879.879 0 0 1 1.288.152l7.333 9.756c.317.42.252 1.034-.143 1.371a.88.88 0 0 1-.572.214Z"/><path fill="#A52727" d="M15.583 11.23h11v2.928h-11V11.23Z"/><path fill="#E30613" d="M41.25 35.621H2.75C1.234 35.621 0 34.31 0 32.695V16.11c0-1.614 1.234-2.927 2.75-2.927h38.5c1.516 0 2.75 1.313 2.75 2.927v16.585c0 1.614-1.234 2.926-2.75 2.926Z"/><path fill="#97D3EE" d="M44 17.085H4.583c-.506 0-.916.436-.916.975v7.806c0 .128.024.255.07.373a.98.98 0 0 0 .198.316c.085.09.186.163.297.212.111.049.23.074.35.074H44v-9.756Z"/><path fill="#444" d="M8.25 30.744c-2.527 0-4.583 2.188-4.583 4.877 0 2.691 2.056 4.879 4.583 4.879s4.583-2.188 4.583-4.879c0-2.69-2.056-4.878-4.583-4.878Zm25.667 0c-2.527 0-4.584 2.188-4.584 4.877 0 2.691 2.057 4.879 4.584 4.879 2.527 0 4.583-2.188 4.583-4.879 0-2.69-2.056-4.878-4.583-4.878Z"/><path fill="#F5F7FA" d="M8.899 34.933c.357.38.357.997 0 1.379a.915.915 0 0 1-.298.212.869.869 0 0 1-1-.212 1.021 1.021 0 0 1 0-1.38.915.915 0 0 1 .298-.21.869.869 0 0 1 1 .21Z"/><path fill="#A52727" d="M15.583 26.845h11v8.776h-11v-8.776Z"/><path fill="#F5F7FA" d="M34.564 34.933c.359.38.359.997 0 1.379a.876.876 0 0 1-1.295 0 1.018 1.018 0 0 1 0-1.38.876.876 0 0 1 1.295 0Z"/><path fill="#A52727" d="M20.625 17.084h.917V35.62h-.917V17.084Z"/><path fill="#6CC6E4" d="m8.191 26.845-.03-9.76 1.835-.006.028 9.759-1.833.007Zm24.824 0-.03-9.76 1.834-.006.029 9.759-1.833.007Z"/><path fill="#A52727" d="M15.583 17.085h11v18.536h.917V16.11H14.667v19.511h.916V17.085ZM44 28.793h-2.75c-.506 0-.917.436-.917.975 0 .539.41.976.917.976H44v-1.95Z"/></svg>